<svg id="Layer_1" data-name="Layer 1" xmlns="http://www.w3.org/2000/svg" xmlns:xlink="http://www.w3.org/1999/xlink" width="800" height="800" viewBox="0 0 800 800"><defs><style>.cls-1{fill:#fff;}.cls-2{fill:#494545;}.cls-3{fill:url(#linear-gradient);}.cls-4{fill:url(#linear-gradient-2);}.cls-5{fill:url(#linear-gradient-3);}.cls-6{fill:url(#linear-gradient-4);}.cls-7{isolation:isolate;font-size:60.12px;font-family:MyriadPro-Regular, Myriad Pro;}.cls-8{fill:none;}</style><linearGradient id="linear-gradient" x1="-157.75" y1="1326.92" x2="-157.75" y2="1328.09" gradientTransform="translate(505.67 -436.15) scale(0.67)" gradientUnits="userSpaceOnUse"><stop offset="0" stop-color="#f29104"/><stop offset="1" stop-color="#ec6813"/></linearGradient><linearGradient id="linear-gradient-2" x1="-296.78" y1="1334.98" x2="-296.78" y2="1627.04" xlink:href="#linear-gradient"/><linearGradient id="linear-gradient-3" x1="-158.12" y1="696.97" x2="-158.12" y2="1627.37" xlink:href="#linear-gradient"/><linearGradient id="linear-gradient-4" x1="-544.4" y1="1290.79" x2="-544.4" y2="1620.32" xlink:href="#linear-gradient"/></defs><title>ocaml-logo-freelogovectors.net_</title><path class="cls-1" d="M414.53,574.1c-1-6,1-12-1-18-1.51-5-5-5.51-7.52-9.51C399.5,536,393.49,522,392.48,509c-.5-11.52-5-22.55-5.51-34.07-.5-5.51.5-11.52,0-17a50.08,50.08,0,0,0-1-8,28.85,28.85,0,0,0-1-5l1.5-3.51c-.5-1,12.53-1,16.54-1,6.51,0,13,.5,19.54.5,13.52.5,26.05.5,39.07-1.5,29.56-4.51,43.09-16.53,49.6-21.54,27.06-19.54,39.08-51.11,39.08-51.11,4.51-10,4.51-27.55,14-35.57,11-9.52,30.06-8.52,43.09-14.53,7.51-3.51,13-5,20.54-3.51,5.51,1,16,8,18.54-1.5-2-1-2.51-3.51-3.51-4.51,10.52-1,0-25.55-4-30.56-6.51-7.51-17.53-11-29.06-14-13.52-3.5-26-8-39.07-5.51-22.55,4.51-21.05-8.52-34.07-8.52-16,0-44.09,1-49.1,16-2.51,7-4.51,7.51-8.52,13-3.51,4.51.5,9-1,14.53-2,5.51-4.51,25.05-7,32.07-4.51,11.52-10,26-20,26-14,1.5-25.05,2-36.57-2-7-2.51-18.54-6.52-24-8.52-26.05-11-30.56-23.05-30.56-23.05-3-4.51-10-12-13-22-3-10.52-8-19.54-10-25.55s-7.51-15-11.52-25.06c-5-13-12.53-22.54-18-27.05-8-7-15.53-18.54-32.06-15-3,.5-13.53,1-22.05,8-5.51,4.51-7.51,14.53-12.52,22.54-3,4.51-8,18-13,29.56-3.5,8-5,13.53-8.52,16.53-3,2-6.51,5-10.52,3.51a23.39,23.39,0,0,1-8-5c-4-3-12.53-18-18-28.56-4.51-9.52-14.53-23.54-20-31.56-8-11-13-14-25.05-14-26,0-28.06,14.53-39.58,36.07-5,9.52-7,24.05-17,35.58-6,6.51-24,34.07-37.08,38.57h0V507c1-2.51,1.5-5,2.51-7,5-10.52,16.53-20.54,23-31.06,3.51-6,7.52-11.52,9.52-18,2-5.51,3-13.52,6-18,3.51-5.51,9-7.52,14.53-8.52,9-1.5,16.54,12.52,27.56,18,5,2,27.05,10,33.57,11.52,11,2.5,23,5,34.07,7,6,1,11.52,2,18,2.51,5.51.5,26,1,27.56,2.5-10.52,5.51-16.54,20.54-20.54,31.07-4,11-7,23.54-12,34.06-5.51,12-17,17-15.53,31.07.5,5.51,1.5,11.52.5,17.53-1,6.52-3.51,11.53-5.51,17.54-2.5,8-5.51,34.57-9,42.58l23-3h0c2.5-6,5-31.06,5.51-33.57,4.51-12.53,10-23,18.54-32.57s8-21.54,13-33.06c5.51-12,12.53-21.55,19.54-33.07,12.53-20.54,20.54-46.09,47.1-51.6,3-.5,19,11,26.05,18,8,8,17,17,22.55,28.06,10.52,21,19,51.6,22.54,68.14,2,9.52,3.51,10,10,18,3,3.51,9,14.53,11,18.54,2,4.51,5,14.53,7.52,20a161.08,161.08,0,0,1,8,21l21.54-.5h.5v-.5C424.55,622.7,418,598.15,414.53,574.1Z"/><path class="cls-2" d="M400.5,449.35Z"/><path class="cls-3" d="M400.5,449.35Z"/><path class="cls-4" d="M405.51,624.7c-2.5-5-5.51-15.53-7.51-20-2-4-8-15-11-18.53-6.51-7.52-8-8-10-18-3.5-17-12-47.1-22.54-68.14-5.51-11-14.53-20-22.55-28.05-7-7-23-18.54-26.05-18-26.55,5-34.57,31.06-47.1,51.6-7,11.53-14,21.05-19.53,33.07-5,11-4.51,23.55-13,33.07a87.61,87.61,0,0,0-18.54,32.56c-1,2.51-3,27.56-5.51,33.57h0l39.08-2.51c36.57,2.51,26.05,16.54,82.67,13.53l89.68-3h0A160.78,160.78,0,0,0,405.51,624.7Z"/><path class="cls-5" d="M666,28.5H134a89.59,89.59,0,0,0-89.68,89.68v195.4h0c13-4.51,31.06-32.07,37.08-38.58,10-11.53,12-26.56,17-35.57,11.52-21.05,13.53-36.08,39.58-36.08,12,0,17,3,25.05,14,5.51,7.52,15.53,22.05,20,31.56,5.51,11,14,25.56,18,28.56,3,2,5.51,4,8,5,4,1.51,7.52-1.5,10.53-3.5,3.5-3,5-8.52,8.51-16.54,5-11.52,10-24.55,13-29.56,5-8,7-18,12.52-22.54,8-7,19-7.52,22.05-8,16.53-3.51,24.05,8,32.06,15,5.52,5,12.53,14.53,18,27.06,4,10,9,19.54,11.52,25.05,2,5.51,7,14.53,10,25.55,3,9.52,10,17,13,22,0,0,4.51,12,30.56,23.05a225.27,225.27,0,0,0,24,8.52c11.52,4,22.55,3.5,36.57,2,10,0,15.54-14.53,20-26,2.51-7,5.52-26.56,7-32.07s-2.51-9.52,1-14.53c4-5.51,6.51-6,8.52-13,5-15.53,33.06-16,49.1-16,13.52,0,11.52,13,34.07,8.52,13-2.5,25.55,1.51,39.07,5.51,11.53,3,22.55,6.52,29.06,14,4,5,14.53,29.56,4,30.56,1,1,2,3.51,3.51,4.51-2.51,9.52-12.53,2.51-18.54,1.51-7.51-1.51-13,0-20.54,3.5-13,5.51-31.56,5-43.09,14.53-9.52,8-9.52,25.55-14,35.57,0,0-12.52,31.57-39.07,51.11-7,5-20.55,17-49.6,21.54-13,2-25.56,2-39.08,1.5-6.52-.5-13-.5-19.54-.5-4,0-17-.5-16.54,1l-1.5,3.51a17.83,17.83,0,0,0,1,5c.5,3,.5,5.51,1,8,0,5.51-.5,11.52,0,17,.51,11.53,5,22.05,5.52,34.07.5,13,7,27.06,13.52,37.58,2.51,4,6,4.51,7.52,9.52,2,5.51,0,12,1,18,3.51,23.55,10.52,48.6,21,70.14v.5h0c13-2,26.56-7,43.59-9.51,31.56-4.51,75.15-2.51,103.21-5,71.14-6.52,109.72,29,173.35,14.52V118.18C755.72,68.58,715.64,28.5,666,28.5ZM400.5,449.35Z"/><path class="cls-6" d="M208.61,531.52c5-11,8-23,12-34.07,4-10.52,10-25.55,20.54-31.07-1.5-1.5-22.05-2-27.56-2.5-6-.5-12-1.5-18-2.51-11-2-23.55-4.51-34.07-7-6.51-1.5-29.06-9.52-33.57-11.52-11.52-5-19-19.54-27.55-18-5.52,1-11,3-14.53,8.52-3,4.51-4,12.52-6,18-2.5,6-6.51,12-9.52,18-7,10.52-18.53,20-23.54,30.56-1,2.51-1.51,5-2.51,7.52V628.21a136.13,136.13,0,0,1,18.54,4c50.1,13.53,62.12,14.53,111.22,9l4.51-.5h0c3.51-8,6.52-34.57,9-42.59,2-6.51,4.51-11.52,5.51-17.54s0-12-.5-17.53C191.58,548.55,203.1,543.54,208.61,531.52Z"/><text class="cls-7" transform="translate(84.42 747.36)"> </text><path class="cls-2" d="M225.15,770c-7,0-13.53-1-19-3.51a45.37,45.37,0,0,1-15-10.52,46.91,46.91,0,0,1-9.52-17c-2.51-6.51-3.51-14.53-3.51-22.54,0-8.52,1-16,3.51-22.55a52.94,52.94,0,0,1,9.52-16.53,40.67,40.67,0,0,1,15-10.52,47.6,47.6,0,0,1,19-3.51c7,0,13.52,1,19,3.51a45.22,45.22,0,0,1,15,10.52,43.38,43.38,0,0,1,9.52,17c2.5,6.52,3.5,14,3.5,22.55s-1,16-3.5,22.55-5.52,12.52-9.52,17a40.67,40.67,0,0,1-15,10.52A56.39,56.39,0,0,1,225.15,770Zm0-20c7,0,12.52-3,17-9,4-6,6-14.53,6-25.05s-2-18.54-6-24.55-10-8.52-17-8.52-12.53,3-17,8.52c-4,6-6,14-6,24.55s2,19,6,25.05C212.62,747,218.13,750,225.15,750Z"/><path class="cls-2" d="M280.76,716.89a67.27,67.27,0,0,1,4-23,48.86,48.86,0,0,1,10.52-17,53.12,53.12,0,0,1,15.53-10.52,49.31,49.31,0,0,1,19-3.51,39.22,39.22,0,0,1,17.53,4,51.33,51.33,0,0,1,13,9.52l-13,14.53a25.45,25.45,0,0,0-8-5.51c-2.51-1.51-6-2-9.52-2a22.68,22.68,0,0,0-10,2.51,20.07,20.07,0,0,0-8,6.51c-2.5,3-4,6.51-5.51,10.52s-2,9-2,14c0,10.52,2.5,19,7,25.05s10.52,9,18.54,9a25.4,25.4,0,0,0,11-2.51,34.85,34.85,0,0,0,8.52-6.51l13,14a46.31,46.31,0,0,1-15,11.52,43.12,43.12,0,0,1-18,4,49.27,49.27,0,0,1-19-3.51,46,46,0,0,1-15.53-10,46.7,46.7,0,0,1-10.52-16.53A80.7,80.7,0,0,1,280.76,716.89Z"/><path class="cls-2" d="M370.44,746.45c0-8.52,3.51-14.53,10.52-19.54,7-4.51,18.54-8,34.07-9.52a14.43,14.43,0,0,0-3-8.52q-3-3-9-3a22.44,22.44,0,0,0-10,2c-3.51,1.5-7,3-11,5l-8.51-15.53a92.92,92.92,0,0,1,16-7.51,51.44,51.44,0,0,1,17.53-3c10,0,18,3,23.55,8.52,5.51,6,8,15,8,27v45.09h-19l-2-8H417a42.62,42.62,0,0,1-10.52,7,27.17,27.17,0,0,1-12.52,3c-3.51,0-7-.51-9.52-2a19.76,19.76,0,0,1-7.52-5,19,19,0,0,1-4.51-7.51C370.94,753,370.44,749.46,370.44,746.45Zm22-2A6.49,6.49,0,0,0,395,750a12.54,12.54,0,0,0,6.51,2,14.6,14.6,0,0,0,7-1.5c2-1,4-3,6-5v-14c-8.52,1-14,3-17.54,5C394.49,738.93,392.48,741.44,392.48,744.45Z"/><path class="cls-2" d="M452.11,690.84h19l1.51,10h.5a78,78,0,0,1,10.52-8.52c3.51-2.5,8-3.51,13.53-3.51s10,1,13.52,3.51a23,23,0,0,1,8,10,100.37,100.37,0,0,1,11-9.52,25.7,25.7,0,0,1,14-4c8.52,0,14.53,3,18.54,8.52s6,13.53,6,23.55V770H545.29V723.9c0-5.51-1-9.52-2.5-12-1.5-2-4-3-7.52-3q-6,0-13.52,7.52V770H498.2V723.9c0-5.51-1-9.52-2.51-12-1.5-2-4-3-7.51-3q-6,0-13.53,7.52V770H451.1V690.84Z"/><path class="cls-2" d="M582.37,656.27h23.55v88.18c0,2.5.5,4,1.5,5a4.32,4.32,0,0,0,3,1.5h1.51a1.84,1.84,0,0,0,1.5-.5l3,17.53c-1.51.5-3,1-5,1.51a30.93,30.93,0,0,1-7,.5c-4,0-7.51-.5-10-2-3-1.5-5-3-6.51-5.51s-3-5-3.51-8.52a69.08,69.08,0,0,1-1-11l-1-86.67Z"/><rect class="cls-8" width="800" height="800"/></svg>